<svg version="1.1" id="Слой_1" xmlns="http://www.w3.org/2000/svg" x="0" y="0" viewBox="0 0 412.5 105" xml:space="preserve" preserveAspectRatio="xMidYMax"><style>.st0{fill:#fff;enable-background:new}</style><path class="st0" d="M109.4 8.3c-.3-.3-.6-.6-1-.8.3 1.6.1-.6-.4 1.6-2.4.2.4.3-2-.2h-1v-.1c-.2-.6.1-.3-.4-.6l-.3.8c-.5 0-1-.1-1.4-.2-1.6 0 0 1-4 1.4 0-.7.4-.6-1.8-1.2.1-.4.1-.2.3-.5.4-.7 0 .4.3-.5-.7-.1-1.4-.3-2.1-.5-1.7-.4 0 .1-1.9.1 0 .3.1.7.2 1-.4 0-.8.1-1.2.2l-.7.4c-.2-.7-.2-.5.2-1-1.3 0-.6.4-1.1.9l-.2.2-.1.1h-.1c-.5.1-1 .1-1.6.1-1.4-.2.1-.2-1.2-.6l-1.4.4c0-.6 0-.4-.2-.8-.7.5-.4.3-1.1.3-.6 0-1.1 0-1.7-.1.2-.2.4-.3.6-.4l-.3-.1c-.2-.1-.4-.1-.6-.1-.2.7-.3.7-1 .8l-1.2.2c-.2 0-1-.1-1-.1h-.1l-.4-.1h-.1l-2.8-.1c.3-1 .3-.2.6-1.2-1.8 1-1.3 1.3-2 1.4-.7.1-.6-.1-.8-.4.3-.5.2-.5 1-.6v-.6c-.7-.1-.4-.3-.9.1-1 .6-.5 1.4-3.1 1.5-.1-.4.1-.2-.2-.4h-.6c-1.5-.4-1.3-.1-2-.6-.4.8.1.5-.6 1-.2-.1-.4-.2-.6-.4-.3-.2-.2-.1-.6-.2-.2.8-.1.6-1 .6v-.4h-.4c-.4.1-.2.1-.4.2-1 .1-1.7.9-2.1 0-.5-.9 0 .2-.1-.2-.2-1.1.4.5 0-.3-.5.3-.2.2-1 .2-.2.5-.1.2 0 .8-.6-.1-.2 0-.4-.1-.4-.3-.6-.8-.6-1.3l-1.2-.3c-.4-.2.2-.1-.3 0s.3 0-.4.1c-1.3.2-.7-.5-2.7.5l.5.7-.1.1c-1.4-.1-2.8-.3-4.2-.6.2-.1 0-.1.4-.2h.6l-.4-.4-.2-.2c-1.1-.5-2 .2-3 .2-1.5-.1.4-.4-1.3-.4-.6 0-.9.3-1.6.4-.1-.5-.3-.5-.6-.8.5.1.9.2 1.4.2v-.4c-.5 0-1.1-.1-1.6-.2 0 1.5.3 1 .6 2-.9 0-3.3.5-4.5.3-1.7-.4-.2.4-1.8 0-1.3-.3-1 0-2.4-.1s-1.5-.6-3.2-.6c-.3.8.2 0-.2.8-.4-.1-.9 0-1.3.1-1.2.5-2.5.8-3.8.7.1-.2.8-1-.5-.7l-2 .5c-.1-.2-.2-.3-.3-.5l-.1-.1-.1-.1-.1-.1-1.2-.3c-.6 0-.2 0-.8.2-.2-.6.1-.1-.4-.6-.4.1-.2-.1-.4.5v.1l-4.1-.3s-.7.1-.9.1c-.1.3-.2-.1 0 .3l.2.4c-1 0-.6-.2-1 .4.7.2.5.1.8.6-1 0-1.4.2-2.6.2h-2.8l-.2.8c-.8-.2-1.2 0-1.6-.6 1.7 0 .9-.4 2.6-.4l-1.7-.2c-.4-.7-.8-.5-2.3 0-.7.2-.2.2-1.1.3l-5.3-.4c.3-.4.2-.2.4-.8 1.4 0 1.4-.3 1.2.6H7c.4-1.1.7-.1 1.4-1-1.8-.1-3.6-.2-5.4-.1H.6c-.9.1-1.8 0-2.7-.1.3.6 0 .5 0 1.6l4 .2-.7.4c-.5.4-.1-.1-.1.2v.1c-1.1.1-2.1.2-3.2.2v95.3h416.8V11.4c-.3.2-.7.2-1 0-.6-.3-.4-.3 0-.8-1.1 0-1.4.1-1.6-.8 1.4.8.6 0 2.4 0v-.6c-1.6-.2.6-.8-2-.8-.5 1.3-1.2.4-.8 1.4-.6-.2-.5-.3-.7-.3-.6 0 .3 0-.5.3-.7-.2-1.5-.3-2.2-.2-.3-1.1-.6-.5-2-1.2-.2-.6.1-.1-.4-.6-.5.1-.3 0-.7.5l-.2.1-.6.7c-1.2.9-2.9-.4-4 .1.2-.6.4-.6 1.2-.6v-.5c-1.4-.1.2-.2-1.2-.6-.2.5.1-.1.2.8l-1.2.2c.1-1.4.6-1.3-1.3-1.8h-.1l-2.5-.4s-.9.2-1 .3l-.7.5-.7.6c-1.3.7-2.8 1-4.3.9-.6 0-1.3 0-1.9.1v-.5c-.4.3-.4.4-.9.5-.5.1-.6-.2-.9-.3-.7-.6-.1-.3-1.1-.4-.6.5-.3.1-.6 1.2-2.4.2.5.3-2-.2h-1c-.2-.4.1-.4-.4-.8l-.2.8c-2.1 0-1.4-.7-2.6.4-.8.5-1.8.8-2.8.8 0-.7.5-.6-1.8-1.2.2-.7.3-.3.6-1-.7-.1-1.4-.3-2.1-.5-1.7-.4 0 .1-1.9.1 0 .3.1.7.2 1-.4 0-.8.1-1.2.2v.4c-1.1-.1-.8-.4-.4-1-.4 0-.4-.1-.7.1-.3.2-.1.2-.2.4s0 .3-.5.6c-1.5.8-3-.4-3-.4l-1.4.4c0-.6 0-.4-.2-.8l-.8.3h-.1c-.7.1-1.4 0-2-.1.2-.2.4-.3.6-.4l-.1-.1-.1-.1c-.2-.1-.4-.1-.5-.1-.3 1.1-.7.6-1.7.8l-4.1-.3c-.6-.1.6 0-.2 0h-.3c-.3.1.1 0-.5.2.3-1 .3-.2.6-1.2-.5.2-1 .6-1.4 1-.4.4-.1.3-.6.4-.6.1-.6-.1-.9-.4.4-.5.2-.5 1-.6v-.4c-2-.4-.2 1.5-3.8 1.6-.1-.3 0-.3-.3-.5h-.3l-.7-.1h-.1c-1-.1-.5.1-1.2-.4-.4.8.1.5-.6 1-.2-.1-.4-.2-.6-.4-.3-.2-.2-.1-.6-.2-.2.8-.1.6-1 .6l-.8-.2c-1 .1-1.6.9-2.1 0s0 .2-.1-.2c-.3-1.1.3.5 0-.3-.5.3-.2.2-1 .2-.2.5-.1.2 0 .8-1-.1 0 .5-1-1 .5 0 .3-.1.5-.1l.3-.1c1.4-.4.7.2 1.3-.5-.7-.2-1.3-.2-2-.2-.2.5-.2.1 0 .6H335.8l-.4-.2c-.4-.2.2 0-.7.1-1.3.2-.7-.5-2.7.5.1.5.3.5.6.8-1.4-.1-2.8-.3-4.2-.6.2-.1 0-.1.4-.2h.6l-.4-.4-.2-.2c-1.1-.5-2 .2-3 .2-1.5-.1.4-.4-1.4-.4-.6 0-.9.3-1.6.4l-.6-.8c.5.1.9.2 1.4.2V7c-.5 0-1.1-.1-1.6-.2 0 1.5.3 1 .6 2-.5 0-1.1 0-1.6.2-1.1.2-2.3.2-3.4 0-.9 0 0 .1-.7.2-.4 0-.3 0-.6-.1-1.3-.3-1 0-2.4-.1s-1.5-.6-3.2-.6c-.4.8.1 0-.2.8-.4-.1-.9 0-1.3.1l-.4.2-.3-.3c-1.1.4-2.2.5-3.3.5.1-.6.2-.3 0-.8-.9.1-.5.4-1.1.4l-1.1.2c-.2-.4-.5-.6-.9-.7l-.1-.1c-.9-.4-.7-.2-1.6 0-.3-.6.1-.1-.4-.6-.6.2 0-.1-.3.2l-.1.4-.7.1-1.7-.1v-.5-.1h-.8v.1c0 .1 0 .1-.1.2 0 .2.1 0-.1.3-1-.7-.2-.2-1.6-.2-.1.3-.2-.1 0 .3l.2.4c-.8 0-.5-.1-1 .2.5.6.3.2.8.8-1.1-.2-2.7.6-4.3.1l-1.5-.3c.1-.7 0-.1.1-.5s0 .2.3-.5c-.7-.1-.6 0-1-.4 1.1 0 5 .4 5.9-.4l-11.9.3c-.8.1-1.8 0-2.6 0-.3 0-.8.1-1 .1l-3.4-.1.1-.1.5-.5c-.9-.1-1.7-.1-2.6 0-.9.2-1.9.3-2.8.2.2.5.2.1 0 .6 1.4-.3 2.8-.5 4.2-.4h.2c0 .3-.9.8-1.2.9l-2.5.7c-.6.1-1.2.1-1.8 0-.1.5-.2-.3.1.2.3.5.2-.2.1.2-.6.3-.4.2-1.2.2-.1-.1-.1-.2-.1-.3V9.9c-.8.2-.3.3-1 .3-.3 0-.8-.2-1.3-.3-1.2-.2-.5.1-1.6.2h-.8v-1c-.9.6-.8 1-2.8 1.2-.1-.7-.1-.7-.8-.8.2.8 1.1 1.2-1.2 1.4-.4-.6-.6-.5-.8-1.4h1.6c-.2-.9-.8-.8-1.5-.5h-.1c-.3.1-.6.1-.9.1.5 1 .2.8.2 2.2-1.3 0-2.4 1.1-3.3.3l-.3-.7c-1.3-.1-2.6 0-3.8.2.2-.8.4-.6.8-1.2-.9-.2-1.4-.3-1.4 1-1 .1-.5.2-1.5.1-.6-.1-1.4-.5-2-.3-1 .3.4-.1-.3.1-.1 0-.2.1-.4.2-.5.2-1 .3-1.5.4 0 0 .1 0 .1.1.1.3 0-.1.3.1s.2-.1.4.4c-.4.2-.7.4-1.1.5-1.2.3-1-.3-1.1.7l-3.6.2c-1.4-.3-.6-.3-.7-.5-.3-.5 0-.4-.3-1.1-1.6 1-.6.3-2.6.2-2-.1-1.2-.2-1.1-.4l.1-.1.3-.7c-1.4.1.2.1-.6.3l-.7-.2h-.8l-.2.1c-.4.1.5.1-.6.2l.7.3.1.1c-1 .1-.5.2-1.7.1-2.1-.2-1.4.7-5-.1-.4-.2-.9-.2-1.4-.2-.9-.1-.6-.2-1.4-.4.1-1.1.6-1 1.4-1.2.9-.3 1.9-.5 2.8-.4-.2-.1 0-.1-.5-.2s-.1 0-.6 0c-1.5.1-3-.1-3.8.4-.8.5.2.1-.7.3v.8h.8c-.4.6 0 .1-.4.3-1.3.5-6.1.3-7.7.3v.7c-1.1 0-2.2.2-3.2.4.4-1.4.8 0 2.2-1-.5 0-1 0-1.5-.1s-.5.1-.7-.5c-.5-.3-.5-.5-1-.2-.1.4 0 .3-.2.6l-.9-.1c-1.8-.4-.8.8-4.4-.4-.7-.2.1-.1-.7-.3l-.6.4c-.4-.3-.3-.4-1-.4-.5 0-.5.1-1.2.2-1.8.1-1.5 0-2.4-.6.2 1 .1.3 0 .6l-3.7.1c-1.4 0 .3-.4-1.1-.2s-.2 1-1.9.2c-1.5-.7-.4.3-2.2.4 0-1.5 1.1-1.3 1.2-2.6-.4.1-2.6 1.8-2.8 2.4-1.6 0-.3-.2-1.9.1-.9.2-.8-.2-1.5-.7-.6.5-1.2.9-1.9 1.1-1.4.3-2-.5-2.1.9-1-.4.2-.1-.8-.4-.4.9.1.8-1.2.8.3-.4.8-1 .1-1.6-.3-.3-.5-.3-.7-.1-.4.4-.1-.1-.1.3l.2.4c-.9-.2-1.1-.8-1.7-.9-.8-.1-1.7 0-2.5.1v-.2c0-.3.2.3 0-.3-.1-.2 0-.3-.7-.4-.3.6-.1.7-.3 1.3-.1.4-.4.5-.7.9-.4-.4-1-.6-1.6-.6l.3-.3.3-.3c-1 .2-.6 0-1.8 0 0 .3.1.7.2 1-1.5 0-1.1.3-2.2.4 0-.8-.1-.6.2-1.2-1.1 0-1.7-.2-2.2.4.5 0 .9-.1 1.4-.2-.4 1.4-1 .2-2.7.7-1 .4-2.1.4-3.1.1-.3-1.2-.1-.5 0-1.6-.3.1-.6.2-.9.4-.8.3-.7.1-.9.1-1.4.1-.4.3-.7 1.1-1-.1-.3-.2-1.2-.8-.9-.6-.4.1-1-1 1.2.3.4 0 1.6-.2H164.3v-.4c-1.4 0-1.3-.3-2.4-.4l-4.2-.2c-.8-.1-1.2-.5-2.1 0-.2.1.6 0-.4.2h-.8c0-.1.1-.4.2-.4.1-.5.2 0 0-.4-.5.3-.2.2-1 .2-.5-.6-.7 0-.9.1-.6.4.1.3-.9.2-1-.1-6.1-.3-6.5.3v.2l-.1-.1-.2.1-.3.1c2 0 2.6.4 6.1.4-.2.7-.9 1.2-1.6 1.2-1.2 0-.2-.6-2.2-.2 0-1.2.1-.6-.4-.8-.2.5-.1.5.2 1l-3 .1h-1.1c-.1 0 0 .1-.5 0s-.3-.1-.4-.1c-.8-.2-.4 0-.9 0-.3.1-.6 0-.8-.2-.5-.4-.4.1.1-.7-1.1 0-1.4.1-1.6-.8.8.4.5.4 1.2.2h.1l.5-.1c.6-.2.4.1.6-.4.2-.5.2.2-.2-.2-1.1-1-.4-.8-1.8-.8-.4 1.3-1.2.4-.8 1.4-.6-.2-.5-.3-.8-.3-.6 0 .3 0-.5.3-.7-.2-1.5-.3-2.2-.2-.2-.8-.9-1-2-1v-.1l-2.7-.7-1.2 1.3c-1 .8-2.8-.1-3.8-.1.4-.6 0-.4 1-.4v-.3c-1.4-.1.2-.2-1.2-.6-.2.5.1-.1.2.8l-1.2.2c0-.8.9-1.6-2-1.9-4.3-.5-2.3.5-4.6 1.3l-.5.1c-3.5 1.1-1.5.4-5.4.7v-.6c-.4.3-.4.4-.9.5h-.4c-.1 0-.2-.1-.3-.1l-.3-.3z"/><path class="st0" d="M209.1 10.6c.8 0 .9.1 1.8.2 2.3.1-.4.3 1.4.4v-.4c3-.1-.1.5 3.4-.2.6-.1 1.2-.3 1.8-.3.8 0 1 .6 1.6-.3-.9-.1-.7-.3-1.8-.1-.6 0-1.1 0-1.6.1v.4c-.7-.2-.3-.2-.9-.4h-1.1c-.2-.3 0-.3-.5-.4h-1.1c0 .1.1.1 0 .8l-3 .2zM24 4.1c1.1.5 2.4.4 3.4-.3l.6-.4c-.8-.2-1.6-.3-2.4-.4-1-.1-1.3.4-1.6 1.1zM299.6 4.1c1.3.6 1.3.4 2.8-.1l1.3-.7c-.8-.2-1.6-.3-2.4-.4-1.1 0-1.4.5-1.7 1.2zM40 3.7c.4 1.5 1-.3 1.4 1.2h.8l-.1-.8c-.3-1.1-1.2-.2-2.1-.4zM315.5 3.7c.4 1.5 1-.3 1.4 1.2h.8c0-.3.1-1.4-.8-1.4s-.2.4-1.4.2zM164.1 9.9c.9 0 .7.2 1.4.2.5-.1 1.1-.1 1.6-.2v-.4c-2.4-.2-2.4-.5-3 .4zM60.7 7.7c1.3.4-.7 0 .6.4.2-.5-.1-.3.4-.4h1v-.4c-.7-.2-1.3-.2-2-.2-.2.5-.2.1 0 .6zM14.1 5.9c.5.3.7.2 1.6.2.6 0 .4-.1.6-.4-.5-.2-2.2-.5-2.2.2zM289.6 5.9c.5.3.7.2 1.6.2.6 0 .4-.1.6-.4-.4-.2-2-.5-2.2.2zM306.4 2.9v.2l1.6.2c.3-.8-.1-.3 1.2-.2v-.4c-1.2 0-1.6.2-2.8.2zM30.9 2.9v.2l1.6.2c.3-.8-.1-.3 1.2-.2v-.4c-1.3 0-1.7.2-2.8.2zM309.5 3.1h2.4c-.4-.6 0-.4-1-.4h-1.4v.4zM33.9 3.1h2.4c-.4-.6 0-.4-1-.4h-1.4v.4zM135.5 3.5c-.7-1-1.1-1-2.2-1.6.2.7.2.6.9.9.4.3.9.5 1.3.7zM411 3.5c-.7-1-1.1-1-2.2-1.6.2.7.2.6.9.9.4.3.9.5 1.3.7zM225.5 11.6v-.4l.2-.4c-1.1-.3-.9-.6-1.4.4.7.2.6.3 1.2.4zM309.3 7.1c.9.2 1.1.5 1.4-.4-.4-.1-1.4-.6-1.4.4zM33.7 7.1c.9.2 1.2.5 1.4-.4-.4-.1-1.4-.6-1.4.4zM328 5.9l2 .2v-.4c-1.1 0-1.1-.2-2-.2v.4zM324.3 4.7l-.1-.1-.6-.5c-.5-.3-1.1-.2-1.5.1.7.3 1.4.5 2.2.5zM48.7 4.7l-.1-.2-.8-.4c-1-.2-1.1.2-1.2.2.6.2 1.4.4 2.1.4zM313.5 3.1c2.8 0 2.9.4 3.8-.4l-3.8.4zM38 3.1c1.5 0 2.9.2 3.5-.1.6-.4.1-.1.3-.3l-3.8.4zM251.1 9.1c1.2 0 1.5-.2 2.6-.2v-.2c-1 0-2.1-.2-2.6.4zM252.5 8.3c.9 0 1.1-.2 2.2-.2v-.2h-2.2v.4zM239.1 12.6c.8 0 .8.1 1.4-.2-.2-.3 0-.4-.6-.4s-.7.3-.8.6zM235.7 9.3c.8 0 .5.2 1.4.2.6 0 .4-.1.6-.4h-2v.2zM43 4.3c.4.1.8.2 1.2.2-.4-.6-.3-.6-1.2-.6v.4zM318.6 4.3c.4.1.8.2 1.2.2-.4-.6-.3-.6-1.2-.6v.4zM313.9 5.1c.4.1.9-.1 1.2-.4-.2-.3-.1-.2-.2-.6l-1 1zM38.4 5.1c.4.1.9-.1 1.2-.4-.1-.2-.2-.4-.2-.6l-1 1zM49.5 6.7h1.6c-.2-.1-.1-.1-.3-.3-.2-.2-1.2-.2-1.3.3zM325.1 6.7h1.6c-.1-.1 0-.1-.3-.3s-1.3-.2-1.3.3zM204.3 10.1c1.3 0 1.4.4 1.8-.2h-1.8v.2zM324.3 4.7l-.3.4h1.3v-.4zM48.7 4.7l-.2.4h1.2v-.4zM140 9.9c1 0 .8.2 1.2-.4H140v.4zM401.7 7.9c.7-.1.7-.1.8-.8-.7.2-.6.1-.8.8zM126.2 7.9c.7-.1.7-.1.8-.8-.7.2-.6.1-.8.8zM311.9 4.3c.8-.1.6.1.8-.6h-.8v.6zM36.3 4.3c.8-.1.6.1.8-.6h-.8v.6zM57.9 6.7c.6 0 .4-.1.6-.4H57c.6.4.4.4.9.4zM333.4 6.7c.6 0 .4-.1.6-.4h-1.4c.2.1.1.1.3.3s-.3.1.5.1zM345.3 7.9l1-.2v-.8l-1 1zM69.8 7.9l1-.2v-.8l-1 1zM409 8.5c.5.6.5.6 1.2.4l-.4-.3-.1-.1c-.1 0-.5-.2-.7 0zM355.6 5.3h.8v-.4l-.8-.2zM69.6 4.5l.4.2c.6 0 .4-.1.6-.4-.4-.1-.9-.4-1 .2zM345.1 4.5l.4.2c.6 0 .4-.1.6-.4-.3-.1-.9-.4-1 .2zM33.7 4.5h1v.4h-1zM309.3 4.5h1v.4h-1z"/><path class="st0" d="M225.5 11.2h2v.2h-2zM53.4 5.7h1v.4h-1zM133.4 8.5c.4.6.5.6 1.2.4l-.1-.1-.7-.4c-.1 0-.3 0-.4.1zM259.8 7.9l1.2.2v-.4h-1.2zM81 7.9c.8-.1.6.1.8-.6H81c.1.4.2.2 0 .6zM318 3.7c.8-.6-.1-.6 1-.6v-.2h-1v.8zM42.4 3.7c.8-.6-.1-.6 1-.6v-.2h-1v.8zM214.2 9.7l1.1-.1c.3-.1.2-.1.3-.3-.6 0-1.3-.1-1.4.4zM286.7 7.5h1.8v.2h-1.8zM99.2 9.7h1.2c-.1-.1-1.1-.9-1.2 0zM319.3 6.1h1v-.4c-.6 0-1-.1-1 .4zM43.6 6.1h1v-.4c-.5 0-.9-.1-1 .4zM232.7 4.7h1c-.4-.6 0-.4-1-.4v.4zM113.6 11.2c.4 0 .3.1.8-.4h-1.2c.1.2.1.4.4.4zM389.2 11.2c.5 0 .3.1.8-.4h-1.2c.1.2.1.4.4.4zM356.6 7.9c.9-.1.4.2.8-.4-.2-.1-.5-.2-.8-.2.1.4.2.2 0 .6zM44 2.9h1.6v.2H44zM319.6 2.9h1.6v.2h-1.6zM63.1 4.9h.8v.4h-.8zM338.7 4.9h.8v.4h-.8zM52.4 5.5h.8v.4h-.8zM237.7 11.4h.8v.4h-.8zM329.6 4.9h1c-.1-.2-.1-.4-.4-.4-.3 0-.6.1-.6.4zM374.8 9.7h1c-.1-.2-.1-.4-.4-.4s-.5.1-.6.4zM54 4.9h1c-.1-.2-.2-.4-.4-.4s-.6.1-.6.4zM336.3 3.7h1c-.1-.1 0-.1-.3-.3-.5-.2-.1-.1-.7-.1v.4zM60.7 3.7h1c-.2-.1 0-.1-.3-.3-.5-.2-.1-.1-.7-.1v.4zM27 8.9h1c-.2-.1 0-.1-.3-.3-.5-.1-.2 0-.7-.1v.4zM234.5 11.2v-.4h-1c.1.1 0 .1.3.3.5.2.1.1.7.1zM80.8 5.3c-.2-.5 0-.4-.8-.6.4.9-.2.5.8.6zM141.7 9.9h1.4v.2h-1.4zM216 9.3h1.4v.2H216zM302.6 8.9h1v-.2c-.3 0-.7-.1-1-.2v.4zM97.8 7.9h.8v-.4c-.5.1-.7 0-.8.4zM293.4.9c.9-.1.4.2.8-.4h-.8v.4zM17.8.9c.9-.1.3.2.8-.4h-.8v.4zM355.1 5.3v-.4h-.8c.4.6-.2.3.8.4zM79.5 5.3v-.4h-.8c.5.6-.1.3.8.4zM265.9 5.1h.6c-.2-.6.3-.1-.6-.6v.6zM374.1 7.5c-.9.1-.4-.2-.8.4 1.2 0 .6.1.8-.4zM56 6.1h.6v.4H56zM370.1 4.3h.6v.4h-.6zM331.6 6.1h.6v.4h-.6zM235.3 11h1.2v.2h-1.2zM77.9 7.7c.7.1.6.4.8-.4l-.4.2c-.4.2-.1 0-.4.2zM353.4 7.7c.7.1.6.4.8-.4-.1 0-.4.1-.4.2-.4.2-.1 0-.4.2zM67.8 5.5c-.4-.6.1-.3-.8-.4.5.6-.1.3.8.4zM241.4 6.7c-.5-.6.1-.3-.8-.4.4.6-.1.3.8.4zM343.3 5.5c-.5-.6.1-.3-.8-.4.5.6-.1.3.8.4zM33.3 6.9h-.8c.4.6.4.6.8 0zM308.9 6.9h-.8c.4.6.4.6.8 0zM354.7 8.1c.3 0 .2.1.5-.1.7-.3.3-.1.5-.3-.6.1-.8.1-1 .4zM218.2 10.6h1v.2h-1zM98.2 9.1h.6v-.4c-.3.1-.5.1-.6.4zM373.7 9.1h.6v-.4c-.3.1-.5.1-.6.4zM94.5 4.7h.6v-.4c-.4.1-.5 0-.6.4zM230 9.3c-.2-.6 0-.4-.6-.6.4.8-.1.4.6.6zM208.1 10.4v-.5h-.8c.2.1-.1 0 .4.2l.4.3zM51.4 5.7c.6-.1.3 0 .6-.4h-.6v.4zM209.1 10.1c.6-.1.3 0 .6-.4h-.6v.4zM327 5.7c.6-.1.3 0 .6-.4h-.6v.4zM120.5 11.4h.6c-.3-.4 0-.3-.6-.4v.4zM396.1 11.4h.6c-.3-.4 0-.3-.6-.4v.4zM79.3 8.1c.4-.1 0 .1.5-.1l.3-.3c-.4.1-.7 0-.8.4zM382.2 8.9c.4-.1 0 .1.5-.1.3-.1.2-.1.3-.3-.4.1-.7 0-.8.4zM106.7 8.9c.4-.1 0 .1.5-.1l.3-.3c-.4.1-.7 0-.8.4zM2.5 1.1h.8v.2h-.8zM288.8 8.9h.8v.2h-.8zM278 1.1h.8v.2h-.8zM13.2 8.9h.8v.2h-.8zM244.8 9.1h.8v.2h-.8zM323 3.7h.8v.2h-.8zM338.7 8.5h.8v.2h-.8zM63.1 8.5h.8v.2h-.8zM47.4 3.7h.8v.2h-.8zM239.5 9.7h.8v.2h-.8zM130 7.1c.6-.5.3.1.4-.8-.1.1-.1 0-.3.3-.2.5 0 .2-.1.5zM405.6 7.1c.6-.5.3.1.4-.8-.1.1-.1 0-.3.3-.2.5 0 .2-.1.5zM374.1 7.5c.6-.1.3 0 .6-.4-1 .1-.3-.2-.6.4z"/><path class="st0" d="M207.3 9.9c-.1 0 .2-.4-.4-.1-.6.3 0-.2-.2.3.5-.1.1 0 .6-.2zM99.2 7.1h-.6c.5.6.2.6.6 0zM375 7.7h-.6c.5.6.1.6.6 0zM99.4 7.7h-.6c.5.6.2.6.6 0zM328.6 7.7l.4-.4c-1.1 0-.3 0-.6.2l.2.2zM53 7.7l.4-.3c-1.1 0-.3 0-.6.2l.2.1zM28.9 4.7c.6-.1.3 0 .6-.4-.4.1-.6 0-.6.4zM338.5 7.3c.6-.1.3 0 .6-.4-.4.1-.5 0-.6.4zM62.9 7.3c.6-.1.3 0 .6-.4-.4.1-.5 0-.6.4zM304.4 4.7c.6-.1.3 0 .6-.4-.4.1-.6 0-.6.4zM237.5 12.4h.6v.2h-.6zM48.1 2.9h.6v.2h-.6zM227.3 9.5h.6v.2h-.6zM81 8.1h.6v.2H81zM8.1 5.7h.6v.2h-.6zM283.7 5.7h.6v.2h-.6zM323.6 2.9h.6v.2h-.6zM356.6 8.1h.6v.2h-.6zM118.7 11.2h.6v.2h-.6zM310.3 3.9h.6v.2h-.6zM34.7 3.9h.6v.2h-.6zM394.3 11.2h.6v.2h-.6zM407.2.7h.6v.2h-.6zM249.7 8.5h.6v.2h-.6zM131.6.7h.6v.2h-.6zM68.2 7.3h.6v.2h-.6zM163.1 9.7h.6v.2h-.6zM343.7 7.3h.6v.2h-.6zM292.2 10.1l-.6-.4c.2.6-.4.4.6.4zM413.7 5.5c-.2-.6.4-.3-.6-.4 0 0 .1 0 .1.1s.1.1.1.1.3.1.4.2zM183.2 5.3c-.3-.4 0-.3-.6-.4.3.5 0 .2.6.4zM138.1 5.5c-.2-.6.4-.3-.6-.4 0 0 .1 0 .1.1l.5.3zM307 4.9c0 .2.4.4.3 0 0-.1-.4-.5-.3 0zM31.5 4.9c0 .2.4.4.3 0-.1-.1-.4-.5-.3 0zM336.3 7.1c-.1-.5.1-.3-.4-.4 0 .5-.2.2.4.4zM60.7 7.1c-.1-.5.1-.3-.4-.4.1.5-.1.2.4.4zM86.3 8.3c.2.2.7-.3.2-.1 0 0-.7-.2-.2.1zM230.7 10.1c.2.2.7-.3.2-.1 0 0-.7-.2-.2.1zM210.5 10.1c.2.2.7-.3.2-.1 0 0-.6-.2-.2.1zM378 8.3c.2.2.7-.3.2-.1.1 0-.5-.2-.2.1zM110.8 7.9c.2.2.7-.3.2-.1 0 0-.6-.2-.2.1zM71.6 8.5c.2.2.7-.3.2-.1.1 0-.5-.2-.2.1zM15.2 6.7c.2.2.7-.3.2-.1.1 0-.5-.2-.2.1zM225.7 9.1c.2.2.7-.3.2-.1.1 0-.5-.2-.2.1zM347.2 8.5c.2.2.7-.3.2-.1.1 0-.5-.2-.2.1zM386.4 7.9c.2.2.7-.3.2-.1 0 0-.6-.2-.2.1zM303.2 7.3c.2.2.7-.3.2-.1 0 0-.6-.2-.2.1zM27.6 7.3c.2.2.7-.3.2-.1 0 0-.6-.2-.2.1zM341.3 6.7c.2.2.7-.3.2-.1 0 0-.5-.2-.2.1zM237.7 8.9c.2.2.7-.3.2-.1 0 0-.5-.2-.2.1zM74.4 8.3c.2.2.8-.3.3-.1 0 0-.6-.2-.3.1zM361.8 8.3c.2.2.7-.3.2-.1 0 0-.6-.2-.2.1zM229.1 11.4c.2.2.7-.3.2-.1.1 0-.5-.2-.2.1zM102.4 8.3c.2.2.7-.3.2-.1.1 0-.5-.2-.2.1zM350 8.3c.2.2.7-.3.2-.1.1 0-.5-.2-.2.1zM254.1 8.9c.2.2.7-.3.2-.1 0 0-.5-.2-.2.1zM202.9 10.4c.2.2.7-.3.2-.1 0 0-.6-.3-.2.1zM65.7 6.7c.2.2.7-.3.2-.1 0 0-.5-.2-.2.1zM290.8 6.7c.2.2.7-.3.2-.1.1 0-.5-.2-.2.1zM263.9 7.9c.2.2.7-.3.2-.1 0 0-.6-.2-.2.1zM239.1 9.3c.2.2.7-.3.2-.1 0 0-.6-.2-.2.1zM381.6 8.7c.2.2.7-.3.2-.1.1 0-.5-.2-.2.1zM237.7 13c.2.2.7-.3.2-.1 0 0-.5-.2-.2.1zM269 8.7c.2.2.7-.3.2-.1 0 0-.7-.2-.2.1zM106.1 8.7c.2.2.7-.3.2-.1.1 0-.5-.2-.2.1zM262.4 8.3c0 .2.4.5.3 0-.1-.5.5 0-.1-.1-.2 0-.2-.3-.2.1zM379.9 7.3c0 .2.4.5.3 0-.1-.5.5 0-.1-.1-.3 0-.2-.3-.2.1zM104.2 7.3c0 .2.4.5.3 0-.1-.5.5 0-.1-.1-.2 0-.2-.3-.2.1zM12.6 9.1c0 .2.4.5.3 0-.1-.5.5 0-.1-.1-.2 0-.2-.3-.2.1zM321 8.1c0 .1.2 0 .2 0s.4.5.1 0c.1 0-.3-.4-.3 0zM316.3 7.9c0 .1.2 0 .2 0s.4.5.1 0c0 0-.3-.4-.3 0zM368.1 8.7l.2-.4c-.3.1-.2-.1-.3.1s0 0 .1.3zM92.5 8.7l.2-.4c-.3.1-.2-.1-.3.1 0 .3-.1 0 .1.3zM184.2 6.7c0 .1.2 0 .2 0s.4.5.1-.1c-.3 0-.3-.2-.3.1zM196.3 8.3c0 .1.2 0 .2 0s.4.5.1 0h-.1c-.1 0-.2-.4-.2 0zM45.4 8.1c0 .1.2 0 .2 0s.3.5.1 0h-.1c-.1 0-.2-.4-.2 0zM40.8 7.9c0 .1.2 0 .2 0s.3.5.1 0H41c-.1 0-.2-.4-.2 0zM67.4 8.5h.2l-.2-.2zM342.9 8.5h.2l-.2-.2zM225.5 11.6v.2l.3-.1zM47.4 2.9c.3.1-.2.5 0 0 .2 0 .2 0 0 0zM4.5 9.7s.1-.1 0 0c.1 0 0 0 0 0zM228.1 10.1c.1 0 0 0 0 0zM271.2 7.1zM233.1 11.2s-.1 0 0 0zM289.6 7.7c.1 0 0 0 0 0zM228.7 7.3c.1 0 0 0 0 0zM252.1 9.7c.1-.1 0 0 0 0zM262.9 7.9c0-.1-.1 0 0 0zM262.9 7.3c0-.1-.1 0 0 0zM49.4 7.3s-.1 0 0 0zM233.3 10.1s-.1 0 0 0zM225.1 10.1l.4.2-.4-.2zM225.1 10.1l-.4-.2.4.2zM384.1 7.9l-.2-.4.2.4z"/></svg>